# xmcd
# Track frame offsets:
# 150
# 13052
# 27928
# 43954
# 54125
# 68632
# 83129
# 96445
# 113909
# 133122
# 145909
# 159545
# 174627
# 189162
#
# Disc length: 2685 seconds
# Revision: 0
# Processed by: cddbd v1.5.2PL0 Copyright (c) Steve Scherf et al.
# Submitted via: VisiTrax 2.11.2.271 - For more info visit www.synapsa.com
#
DISCID=bb0a7b0e
DTITLE=Howard, Garry - Country Classics
DYEAR=2012
DGENRE=Country
TTITLE0=Howard, Garry - Sea of Heartbreak
TTITLE1=Howard, Garry - Nothing I Can do About it Now
TTITLE2=Howard, Garry - I Just Want to Dance With You
TTITLE3=Howard, Garry - Abilene
TTITLE4=Howard, Garry - Party  Crowd
TTITLE5=Howard, Garry - Summertime Blues
TTITLE6=Howard, Garry - Tropical Depression
TTITLE7=Howard, Garry - I Need More of You
TTITLE8=Howard, Garry - Seven Spanish Angels
TTITLE9=Soward, Garry - Whiskey Under the Bridge
TTITLE10=Howard. Garry - Dont Rock the Jukebox
TTITLE11=Howard, Garry - Twinke Twinkle Lucky Starr
TTITLE12=Howard, Garry - It's 5 Oçlock Somewhere
TTITLE13=Howard, Garry - Oh Lonesome Me
EXTD=
EXTT0=
EXTT1=
EXTT2=
EXTT3=
EXTT4=
EXTT5=
EXTT6=
EXTT7=
EXTT8=
EXTT9=
EXTT10=
EXTT11=
EXTT12=
EXTT13=
PLAYORDER=
